<svg width="24" height="24" viewBox="0 0 24 24" fill="none" xmlns="http://www.w3.org/2000/svg">
<path fill-rule="evenodd" clip-rule="evenodd" d="M3 12C3 11.7271 3.10929 11.4798 3.28648 11.2994C3.28861 11.2972 3.29075 11.295 3.29289 11.2929L9.29289 5.29289C9.68342 4.90237 10.3166 4.90237 10.7071 5.29289C11.0976 5.68342 11.0976 6.31658 10.7071 6.70711L6.41421 11H19C19.5523 11 20 11.4477 20 12C20 12.5523 19.5523 13 19 13L6.41421 13L10.7071 17.2929C11.0976 17.6834 11.0976 18.3166 10.7071 18.7071C10.3166 19.0976 9.68342 19.0976 9.29289 18.7071L3.29319 12.7074L3.29289 12.7071C3.10536 12.5196 3 12.2652 3 12Z" />
</svg>
