<svg width="24" height="24" viewBox="0 0 24 24" fill="none" xmlns="http://www.w3.org/2000/svg">
<path d="M15 2C15 1.44772 14.5523 1 14 1H10C9.44772 1 9 1.44772 9 2V2C9 2.55228 9.44772 3 10 3H14C14.5523 3 15 2.55228 15 2V2ZM11 13C11 13.5523 11.4477 14 12 14V14C12.5523 14 13 13.5523 13 13V9C13 8.44772 12.5523 8 12 8V8C11.4477 8 11 8.44772 11 9V13ZM19.03 7.39L19.7399 6.68006C20.1415 6.27853 20.1716 5.62953 19.7709 5.22713V5.22713C19.3736 4.82818 18.7362 4.86375 18.3381 5.26186L17.62 5.98C16.0273 4.69833 14.0443 3.99969 12 4C7.03 4 3 8.03 3 13C3 17.97 7.02 22 12 22C13.6943 22.0009 15.3544 21.5232 16.7891 20.622C18.2238 19.7207 19.3748 18.4325 20.1094 16.9057C20.8441 15.379 21.1325 13.6758 20.9415 11.9923C20.7506 10.3087 20.088 8.71341 19.03 7.39ZM12 20C8.13 20 5 16.87 5 13C5 9.13 8.13 6 12 6C15.87 6 19 9.13 19 13C19 16.87 15.87 20 12 20Z" />
</svg>
