<svg width="32" height="32" viewBox="0 0 32 32" fill="none" xmlns="http://www.w3.org/2000/svg">
<g clip-path="url(#clip0)">
<path d="M14.9333 4.21587L13.2063 4.7746L11.7841 2.13333L12.8 1.42222L13.3587 1.87936L13.1048 0.355556L15.4413 0L15.5937 1.21905L16 0.863492V4.21587H14.9333Z" fill="#13E781"/>
<path d="M17.0667 4.21587L18.7937 4.7746L20.2159 2.13333L19.2 1.42222L18.6413 1.87936L18.8952 0.355556L16.5587 0L16.4063 1.21905L16 0.863492V4.21587H17.0667Z" fill="#00C064"/>
<path d="M16 32C24.0511 32 30.5778 25.4733 30.5778 17.4222C30.5778 9.37115 24.0511 2.84445 16 2.84445C7.94892 2.84445 1.42223 9.37115 1.42223 17.4222C1.42223 25.4733 7.94892 32 16 32Z" fill="#FF385C"/>
<path d="M16 2.84445C24.0254 2.84445 30.5778 9.34604 30.5778 17.4222C30.5778 25.4476 24.0762 32 16 32" fill="#EC002A"/>
<path d="M16 29.0032C22.396 29.0032 27.5809 23.8182 27.5809 17.4222C27.5809 11.0262 22.396 5.84128 16 5.84128C9.604 5.84128 4.41904 11.0262 4.41904 17.4222C4.41904 23.8182 9.604 29.0032 16 29.0032Z" fill="#FF7890"/>
<path d="M16 5.84128C22.4 5.84128 27.581 11.0222 27.581 17.4222C27.581 23.8222 22.4 29.0032 16 29.0032" fill="#FF5674"/>
<path d="M16 26.7175C21.1336 26.7175 25.2952 22.5558 25.2952 17.4222C25.2952 12.2886 21.1336 8.12698 16 8.12698C10.8664 8.12698 6.70476 12.2886 6.70476 17.4222C6.70476 22.5558 10.8664 26.7175 16 26.7175Z" fill="#EC002A"/>
<path d="M16 8.12698C21.1302 8.12698 25.2952 12.2921 25.2952 17.4222C25.2952 22.5524 21.1302 26.7175 16 26.7175" fill="#EC002A"/>
<path d="M18.0317 7.36508H13.9683V27.1746H18.0317V7.36508Z" fill="#FF5674"/>
<path d="M16 7.36508H13.9683V27.1746H16V7.36508Z" fill="#FF7890"/>
<path d="M16 20.9778C17.9637 20.9778 19.5556 19.3859 19.5556 17.4222C19.5556 15.4585 17.9637 13.8667 16 13.8667C14.0363 13.8667 12.4444 15.4585 12.4444 17.4222C12.4444 19.3859 14.0363 20.9778 16 20.9778Z" fill="#FF7890"/>
<path d="M16 13.8667C17.981 13.8667 19.5556 15.4921 19.5556 17.4222C19.5556 19.4032 17.981 20.9778 16 20.9778" fill="#FF5674"/>
<path d="M10.7682 13.054L12.546 14.0191L12.0381 11.9365C11.9873 11.9365 11.9365 11.7841 11.8857 11.6825C11.5809 11.2762 11.0222 11.2762 10.6667 11.5302C10.2603 11.8349 10.2095 12.3937 10.5143 12.8C10.5651 12.9016 10.6667 13.0032 10.7682 13.054Z" fill="#FFCD50"/>
<path d="M9.49842 16.2032L11.581 16.1524L10.1079 14.7302C10.0064 14.6286 9.90477 14.5778 9.80318 14.527C9.34604 14.3238 8.8381 14.5778 8.63493 15.0349C8.48255 15.4921 8.68572 16 9.14286 16.2032C9.24445 16.1524 9.34604 16.2032 9.49842 16.2032Z" fill="#FFCD50"/>
<path d="M10.0571 19.8095L11.581 18.3873L9.49842 18.2857C9.39683 18.2857 9.24445 18.2857 9.14286 18.3365C8.68572 18.4889 8.43175 18.9968 8.63492 19.454C8.78731 19.9111 9.29524 20.1651 9.75238 19.9619C9.85397 19.9619 9.95556 19.9111 10.0571 19.8095Z" fill="#FFCD50"/>
<path d="M12.0381 22.7555L12.546 20.7746L10.7683 21.7905C10.6667 21.8413 10.5651 21.9429 10.4635 22.0444C10.1587 22.4508 10.2603 23.0095 10.6159 23.2635C11.0222 23.5682 11.581 23.4667 11.8349 23.1111C11.9873 23.0095 12.0381 22.8571 12.0381 22.7555Z" fill="#FFCD50"/>
<path d="M21.2318 13.054L19.454 14.0191L19.9619 11.9365C20.0127 11.9365 20.0635 11.7841 20.1143 11.6825C20.4191 11.2762 20.9778 11.2762 21.3333 11.5302C21.7397 11.8349 21.7905 12.3937 21.4857 12.8C21.4349 12.9016 21.3333 13.0032 21.2318 13.054Z" fill="#FFCD50"/>
<path d="M22.5016 16.2032L20.4191 16.1524L21.8921 14.7302C21.9937 14.6286 22.0953 14.5778 22.1968 14.527C22.654 14.3238 23.1619 14.5778 23.3651 15.0349C23.5175 15.4921 23.3143 16 22.8572 16.2032C22.7556 16.1524 22.654 16.2032 22.5016 16.2032Z" fill="#FFCD50"/>
<path d="M21.9429 19.8095L20.4191 18.3873L22.5016 18.2857C22.6032 18.2857 22.7556 18.2857 22.8572 18.3365C23.3143 18.4889 23.5683 18.9968 23.3651 19.454C23.2127 19.9111 22.7048 20.1651 22.2476 19.9619C22.146 19.9619 22.0445 19.9111 21.9429 19.8095Z" fill="#FFCD50"/>
<path d="M19.9619 22.7555L19.454 20.7746L21.2318 21.7905C21.3333 21.8413 21.4349 21.9429 21.5365 22.0444C21.8413 22.4508 21.7397 23.0095 21.3841 23.2635C20.9778 23.5682 20.4191 23.4667 20.1651 23.1111C20.0127 23.0095 19.9619 22.8571 19.9619 22.7555Z" fill="#FFCD50"/>
</g>
<defs>
<clipPath id="clip0">
<rect width="32" height="32" fill="white"/>
</clipPath>
</defs>
</svg>
